G04 #@! TF.GenerationSoftware,KiCad,Pcbnew,8.0.2-1*
G04 #@! TF.CreationDate,2024-06-13T17:29:39-04:00*
G04 #@! TF.ProjectId,mobo,6d6f626f-2e6b-4696-9361-645f70636258,rev?*
G04 #@! TF.SameCoordinates,Original*
G04 #@! TF.FileFunction,Paste,Top*
G04 #@! TF.FilePolarity,Positive*
%FSLAX46Y46*%
G04 Gerber Fmt 4.6, Leading zero omitted, Abs format (unit mm)*
G04 Created by KiCad (PCBNEW 8.0.2-1) date 2024-06-13 17:29:39*
%MOMM*%
%LPD*%
G01*
G04 APERTURE LIST*
G04 Aperture macros list*
%AMRoundRect*
0 Rectangle with rounded corners*
0 $1 Rounding radius*
0 $2 $3 $4 $5 $6 $7 $8 $9 X,Y pos of 4 corners*
0 Add a 4 corners polygon primitive as box body*
4,1,4,$2,$3,$4,$5,$6,$7,$8,$9,$2,$3,0*
0 Add four circle primitives for the rounded corners*
1,1,$1+$1,$2,$3*
1,1,$1+$1,$4,$5*
1,1,$1+$1,$6,$7*
1,1,$1+$1,$8,$9*
0 Add four rect primitives between the rounded corners*
20,1,$1+$1,$2,$3,$4,$5,0*
20,1,$1+$1,$4,$5,$6,$7,0*
20,1,$1+$1,$6,$7,$8,$9,0*
20,1,$1+$1,$8,$9,$2,$3,0*%
G04 Aperture macros list end*
%ADD10C,0.120000*%
%ADD11RoundRect,0.250000X-0.450000X0.262500X-0.450000X-0.262500X0.450000X-0.262500X0.450000X0.262500X0*%
%ADD12RoundRect,0.250000X0.250000X0.475000X-0.250000X0.475000X-0.250000X-0.475000X0.250000X-0.475000X0*%
%ADD13RoundRect,0.100000X-0.250000X-0.500000X0.250000X-0.500000X0.250000X0.500000X-0.250000X0.500000X0*%
%ADD14RoundRect,0.100000X-0.150000X-0.300000X0.150000X-0.300000X0.150000X0.300000X-0.150000X0.300000X0*%
%ADD15R,0.750000X0.650000*%
%ADD16R,0.500000X0.250000*%
%ADD17R,0.900000X1.200000*%
%ADD18RoundRect,0.250000X0.262500X0.450000X-0.262500X0.450000X-0.262500X-0.450000X0.262500X-0.450000X0*%
%ADD19RoundRect,0.250000X0.450000X-0.262500X0.450000X0.262500X-0.450000X0.262500X-0.450000X-0.262500X0*%
%ADD20RoundRect,0.075000X0.075000X-0.662500X0.075000X0.662500X-0.075000X0.662500X-0.075000X-0.662500X0*%
%ADD21RoundRect,0.075000X0.662500X-0.075000X0.662500X0.075000X-0.662500X0.075000X-0.662500X-0.075000X0*%
%ADD22RoundRect,0.075000X0.075000X-0.575000X0.075000X0.575000X-0.075000X0.575000X-0.075000X-0.575000X0*%
%ADD23RoundRect,0.075000X0.575000X-0.075000X0.575000X0.075000X-0.575000X0.075000X-0.575000X-0.075000X0*%
%ADD24R,1.500000X2.000000*%
%ADD25R,3.800000X2.000000*%
%ADD26R,2.100000X1.800000*%
%ADD27RoundRect,0.250000X-0.550000X1.412500X-0.550000X-1.412500X0.550000X-1.412500X0.550000X1.412500X0*%
%ADD28RoundRect,0.250000X0.550000X-1.412500X0.550000X1.412500X-0.550000X1.412500X-0.550000X-1.412500X0*%
%ADD29RoundRect,0.150000X-0.150000X0.587500X-0.150000X-0.587500X0.150000X-0.587500X0.150000X0.587500X0*%
%ADD30RoundRect,0.250000X-0.475000X0.250000X-0.475000X-0.250000X0.475000X-0.250000X0.475000X0.250000X0*%
%ADD31RoundRect,0.125000X-0.053033X-0.583363X0.583363X0.053033X0.053033X0.583363X-0.583363X-0.053033X0*%
%ADD32RoundRect,0.125000X-0.017678X-0.548008X0.548008X0.017678X0.017678X0.548008X-0.548008X-0.017678X0*%
%ADD33RoundRect,0.150000X-0.035355X0.671751X-0.671751X0.035355X0.035355X-0.671751X0.671751X-0.035355X0*%
%ADD34R,0.650000X0.750000*%
%ADD35R,0.250000X0.500000*%
%ADD36RoundRect,0.250000X-0.262500X-0.450000X0.262500X-0.450000X0.262500X0.450000X-0.262500X0.450000X0*%
%ADD37RoundRect,0.200000X-0.600000X0.200000X-0.600000X-0.200000X0.600000X-0.200000X0.600000X0.200000X0*%
%ADD38RoundRect,0.250001X-1.249999X0.799999X-1.249999X-0.799999X1.249999X-0.799999X1.249999X0.799999X0*%
%ADD39RoundRect,0.125000X-0.375000X0.450000X-0.375000X-0.450000X0.375000X-0.450000X0.375000X0.450000X0*%
%ADD40RoundRect,0.125000X-0.375000X0.400000X-0.375000X-0.400000X0.375000X-0.400000X0.375000X0.400000X0*%
%ADD41RoundRect,0.150000X0.500000X-0.450000X0.500000X0.450000X-0.500000X0.450000X-0.500000X-0.450000X0*%
%ADD42RoundRect,0.200000X0.200000X0.600000X-0.200000X0.600000X-0.200000X-0.600000X0.200000X-0.600000X0*%
%ADD43RoundRect,0.250001X0.799999X1.249999X-0.799999X1.249999X-0.799999X-1.249999X0.799999X-1.249999X0*%
%ADD44RoundRect,0.150000X0.825000X0.150000X-0.825000X0.150000X-0.825000X-0.150000X0.825000X-0.150000X0*%
%ADD45RoundRect,0.250000X-0.250000X-0.475000X0.250000X-0.475000X0.250000X0.475000X-0.250000X0.475000X0*%
%ADD46R,2.400000X1.500000*%
%ADD47RoundRect,0.250000X0.475000X-0.250000X0.475000X0.250000X-0.475000X0.250000X-0.475000X-0.250000X0*%
%ADD48RoundRect,0.287500X-0.027585X0.461846X-0.443428X-0.132039X0.027585X-0.461846X0.443428X0.132039X0*%
%ADD49RoundRect,0.150000X-0.413570X1.022049X-1.101862X0.039067X0.413570X-1.022049X1.101862X-0.039067X0*%
%ADD50R,0.850000X0.650000*%
%ADD51RoundRect,0.150000X0.150000X-0.825000X0.150000X0.825000X-0.150000X0.825000X-0.150000X-0.825000X0*%
G04 APERTURE END LIST*
D10*
X112716578Y-31250081D02*
X111856214Y-32478809D01*
X110115516Y-31259959D01*
X110975880Y-30031231D01*
X112716578Y-31250081D01*
G36*
X112716578Y-31250081D02*
G01*
X111856214Y-32478809D01*
X110115516Y-31259959D01*
X110975880Y-30031231D01*
X112716578Y-31250081D01*
G37*
X104780745Y-42540040D02*
X103920380Y-43768768D01*
X102179682Y-42549918D01*
X103040047Y-41321190D01*
X104780745Y-42540040D01*
G36*
X104780745Y-42540040D02*
G01*
X103920380Y-43768768D01*
X102179682Y-42549918D01*
X103040047Y-41321190D01*
X104780745Y-42540040D01*
G37*
D11*
X120800000Y-38037500D03*
X120800000Y-39862500D03*
D12*
X123800000Y-51450000D03*
X121900000Y-51450000D03*
X140250000Y-78600000D03*
X138350000Y-78600000D03*
D13*
X129450000Y-111900000D03*
D14*
X130450000Y-111625000D03*
X131250000Y-111625000D03*
D13*
X132250000Y-111900000D03*
D15*
X111300000Y-81400000D03*
X111300000Y-82200000D03*
D16*
X110350000Y-81050000D03*
X110350000Y-81550000D03*
X110350000Y-82050000D03*
X110350000Y-82550000D03*
X112250000Y-82550000D03*
X112250000Y-82050000D03*
X112250000Y-81550000D03*
X112250000Y-81050000D03*
D11*
X129100000Y-107387500D03*
X129100000Y-109212500D03*
D17*
X116600000Y-51300000D03*
X113300000Y-51300000D03*
D18*
X122312500Y-80300000D03*
X120487500Y-80300000D03*
D19*
X136350000Y-78362500D03*
X136350000Y-76537500D03*
D20*
X128736665Y-76449760D03*
X129236665Y-76449760D03*
X129736665Y-76449760D03*
X130236665Y-76449760D03*
X130736665Y-76449760D03*
X131236665Y-76449760D03*
X131736665Y-76449760D03*
X132236665Y-76449760D03*
X132736665Y-76449760D03*
X133236665Y-76449760D03*
X133736665Y-76449760D03*
X134236665Y-76449760D03*
D21*
X135649165Y-75037260D03*
X135649165Y-74537260D03*
X135649165Y-74037260D03*
X135649165Y-73537260D03*
X135649165Y-73037260D03*
X135649165Y-72537260D03*
X135649165Y-72037260D03*
X135649165Y-71537260D03*
X135649165Y-71037260D03*
X135649165Y-70537260D03*
X135649165Y-70037260D03*
X135649165Y-69537260D03*
D20*
X134236665Y-68124760D03*
X133736665Y-68124760D03*
X133236665Y-68124760D03*
D22*
X132736665Y-68037260D03*
X132236665Y-68037260D03*
X131736665Y-68037260D03*
X131236665Y-68037260D03*
X130736665Y-68037260D03*
X130236665Y-68037260D03*
X129736665Y-68037260D03*
X129236665Y-68037260D03*
D20*
X128736665Y-68124760D03*
D21*
X127324165Y-69537260D03*
D23*
X127234165Y-70037260D03*
X127234165Y-70537260D03*
X127234165Y-71037260D03*
X127234165Y-71537260D03*
X127234165Y-72037260D03*
X127234165Y-72537260D03*
X127234165Y-73037260D03*
X127234165Y-73537260D03*
D21*
X127324165Y-74037260D03*
X127324165Y-74537260D03*
X127324165Y-75037260D03*
D11*
X131850000Y-107387500D03*
X131850000Y-109212500D03*
X134600000Y-107387500D03*
X134600000Y-109212500D03*
D24*
X118750000Y-48900000D03*
X121050000Y-48900000D03*
D25*
X121050000Y-42600000D03*
D24*
X123350000Y-48900000D03*
D26*
X128962260Y-81938095D03*
X131862260Y-81938095D03*
X131862260Y-79638095D03*
X128962260Y-79638095D03*
D12*
X140250000Y-70200000D03*
X138350000Y-70200000D03*
D11*
X118400000Y-38025000D03*
X118400000Y-39850000D03*
D27*
X135600000Y-34112500D03*
X135600000Y-39187500D03*
D28*
X135500000Y-51487500D03*
X135500000Y-46412500D03*
D12*
X122350000Y-75000000D03*
X120450000Y-75000000D03*
D29*
X115950000Y-42962500D03*
X114050000Y-42962500D03*
X115000000Y-44837500D03*
D30*
X124750000Y-73600000D03*
X124750000Y-75500000D03*
D31*
X140412132Y-111407969D03*
D32*
X138007969Y-113812132D03*
D33*
X138927208Y-115721320D03*
X142321320Y-112327208D03*
D18*
X122312500Y-84000000D03*
X120487500Y-84000000D03*
D12*
X125050000Y-39900000D03*
X123150000Y-39900000D03*
D34*
X118100000Y-75600000D03*
X117300000Y-75600000D03*
D35*
X118450000Y-74650000D03*
X117950000Y-74650000D03*
X117450000Y-74650000D03*
X116950000Y-74650000D03*
X116950000Y-76550000D03*
X117450000Y-76550000D03*
X117950000Y-76550000D03*
X118450000Y-76550000D03*
D36*
X105837500Y-45650000D03*
X107662500Y-45650000D03*
D37*
X107000000Y-78675000D03*
X107000000Y-79925000D03*
X107000000Y-81175000D03*
X107000000Y-82425000D03*
X107000000Y-83675000D03*
X107000000Y-84925000D03*
D38*
X104100000Y-76125000D03*
X104100000Y-87475000D03*
D12*
X120200000Y-51450000D03*
X118300000Y-51450000D03*
X140250000Y-72300000D03*
X138350000Y-72300000D03*
X122350000Y-77700000D03*
X120450000Y-77700000D03*
D39*
X126400000Y-110100000D03*
D40*
X126400000Y-106700000D03*
D41*
X124400000Y-106000000D03*
X124400000Y-110800000D03*
D30*
X113600000Y-47300000D03*
X113600000Y-49200000D03*
D42*
X118325000Y-71900000D03*
X117075000Y-71900000D03*
D43*
X120875000Y-69000000D03*
X114525000Y-69000000D03*
D44*
X111225000Y-51455000D03*
X111225000Y-50185000D03*
X111225000Y-48915000D03*
X111225000Y-47645000D03*
X106275000Y-47645000D03*
X106275000Y-48915000D03*
X106275000Y-50185000D03*
X106275000Y-51455000D03*
D19*
X116350000Y-49162500D03*
X116350000Y-47337500D03*
D36*
X136187500Y-68000000D03*
X138012500Y-68000000D03*
D45*
X125450000Y-77400000D03*
X127350000Y-77400000D03*
D36*
X109837500Y-45650000D03*
X111662500Y-45650000D03*
D46*
X128200000Y-45950000D03*
X128200000Y-51450000D03*
D12*
X112250000Y-78900000D03*
X110350000Y-78900000D03*
D47*
X126412260Y-81738095D03*
X126412260Y-79838095D03*
D12*
X140250000Y-74400000D03*
X138350000Y-74400000D03*
D48*
X112138626Y-34080447D03*
X110704684Y-36128327D03*
X109270743Y-38176207D03*
X107836802Y-40224087D03*
X106402861Y-42271967D03*
D49*
X111405808Y-31247851D03*
X103490453Y-42552149D03*
D36*
X123187500Y-37850000D03*
X125012500Y-37850000D03*
D30*
X134412260Y-79838095D03*
X134412260Y-81738095D03*
D50*
X131575000Y-114125000D03*
X131575000Y-114975000D03*
X130125000Y-114975000D03*
X130125000Y-114125000D03*
D12*
X140250000Y-76500000D03*
X138350000Y-76500000D03*
D51*
X126995000Y-43475000D03*
X128265000Y-43475000D03*
X129535000Y-43475000D03*
X130805000Y-43475000D03*
X130805000Y-38525000D03*
X129535000Y-38525000D03*
X128265000Y-38525000D03*
X126995000Y-38525000D03*
D31*
X146312132Y-105507969D03*
D32*
X143907969Y-107912132D03*
D33*
X144827208Y-109821320D03*
X148221320Y-106427208D03*
D30*
X114800000Y-78650000D03*
X114800000Y-80550000D03*
D17*
X133850000Y-42750000D03*
X137150000Y-42750000D03*
M02*
