G04 #@! TF.GenerationSoftware,KiCad,Pcbnew,9.0.2*
G04 #@! TF.CreationDate,2025-09-06T12:03:56+01:00*
G04 #@! TF.ProjectId,test_fiducial,74657374-5f66-4696-9475-6369616c2e6b,rev?*
G04 #@! TF.SameCoordinates,Original*
G04 #@! TF.FileFunction,Copper,L1,Top*
G04 #@! TF.FilePolarity,Positive*
%FSLAX46Y46*%
G04 Gerber Fmt 4.6, Leading zero omitted, Abs format (unit mm)*
G04 Created by KiCad (PCBNEW 9.0.2) date 2025-09-06 12:03:56*
%MOMM*%
%LPD*%
G01*
G04 APERTURE LIST*
G04 Aperture macros list*
%AMRoundRect*
0 Rectangle with rounded corners*
0 $1 Rounding radius*
0 $2 $3 $4 $5 $6 $7 $8 $9 X,Y pos of 4 corners*
0 Add a 4 corners polygon primitive as box body*
4,1,4,$2,$3,$4,$5,$6,$7,$8,$9,$2,$3,0*
0 Add four circle primitives for the rounded corners*
1,1,$1+$1,$2,$3*
1,1,$1+$1,$4,$5*
1,1,$1+$1,$6,$7*
1,1,$1+$1,$8,$9*
0 Add four rect primitives between the rounded corners*
20,1,$1+$1,$2,$3,$4,$5,0*
20,1,$1+$1,$4,$5,$6,$7,0*
20,1,$1+$1,$6,$7,$8,$9,0*
20,1,$1+$1,$8,$9,$2,$3,0*%
G04 Aperture macros list end*
G04 #@! TA.AperFunction,EtchedComponent*
%ADD10C,0.381000*%
G04 #@! TD*
G04 #@! TA.AperFunction,SMDPad,CuDef*
%ADD11C,0.500000*%
G04 #@! TD*
G04 #@! TA.AperFunction,SMDPad,CuDef*
%ADD12RoundRect,0.250000X0.132583X-0.503814X0.503814X-0.132583X-0.132583X0.503814X-0.503814X0.132583X0*%
G04 #@! TD*
G04 #@! TA.AperFunction,SMDPad,CuDef*
%ADD13RoundRect,0.200000X-0.200000X-0.275000X0.200000X-0.275000X0.200000X0.275000X-0.200000X0.275000X0*%
G04 #@! TD*
G04 #@! TA.AperFunction,SMDPad,CuDef*
%ADD14RoundRect,0.100000X-0.130000X-0.100000X0.130000X-0.100000X0.130000X0.100000X-0.130000X0.100000X0*%
G04 #@! TD*
G04 #@! TA.AperFunction,SMDPad,CuDef*
%ADD15RoundRect,0.135000X-0.135000X-0.185000X0.135000X-0.185000X0.135000X0.185000X-0.135000X0.185000X0*%
G04 #@! TD*
G04 #@! TA.AperFunction,SMDPad,CuDef*
%ADD16RoundRect,0.250000X-0.262500X-0.450000X0.262500X-0.450000X0.262500X0.450000X-0.262500X0.450000X0*%
G04 #@! TD*
G04 #@! TA.AperFunction,ComponentPad*
%ADD17C,1.879600*%
G04 #@! TD*
G04 #@! TA.AperFunction,ViaPad*
%ADD18C,0.600000*%
G04 #@! TD*
G04 #@! TA.AperFunction,Conductor*
%ADD19C,0.200000*%
G04 #@! TD*
G04 APERTURE END LIST*
D10*
G04 #@! TO.C,REF\u002A\u002A*
X143050020Y-110850000D02*
X143050020Y-112848980D01*
X144050780Y-110850000D02*
X144050780Y-111850760D01*
X145049000Y-110850000D02*
X145049000Y-111850760D01*
X146049760Y-110850000D02*
X146049760Y-111850760D01*
X147050520Y-110850000D02*
X147050520Y-111850760D01*
X148048740Y-110850000D02*
X148048740Y-112848980D01*
X149049500Y-110850000D02*
X149049500Y-111850760D01*
X150050260Y-110850000D02*
X150050260Y-111850760D01*
X151051020Y-110850000D02*
X151051020Y-111850760D01*
X152049240Y-110850000D02*
X152049240Y-111350380D01*
X153050000Y-100850020D02*
X151051020Y-100850020D01*
X153050000Y-101850780D02*
X152049240Y-101850780D01*
X153050000Y-102849000D02*
X152049240Y-102849000D01*
X153050000Y-103849760D02*
X152049240Y-103849760D01*
X153050000Y-104850520D02*
X152049240Y-104850520D01*
X153050000Y-105848740D02*
X151051020Y-105848740D01*
X153050000Y-106849500D02*
X152049240Y-106849500D01*
X153050000Y-107850260D02*
X152049240Y-107850260D01*
X153050000Y-108851020D02*
X152049240Y-108851020D01*
X153050000Y-109849240D02*
X152049240Y-109849240D01*
X153050000Y-110850000D02*
X143050020Y-110850000D01*
X153050000Y-110850000D02*
X153050000Y-100850020D01*
X153050000Y-110850000D02*
X153050000Y-112848980D01*
X153050000Y-110850000D02*
X163049980Y-110850000D01*
X153050000Y-111850760D02*
X152549620Y-111850760D01*
X153050000Y-112848980D02*
X152049240Y-112848980D01*
X153050000Y-112848980D02*
X153050000Y-120849980D01*
X153050000Y-113849740D02*
X152049240Y-113849740D01*
X153050000Y-114850500D02*
X152049240Y-114850500D01*
X153050000Y-115851260D02*
X151051020Y-115851260D01*
X153050000Y-116849480D02*
X152049240Y-116849480D01*
X153050000Y-117850240D02*
X152049240Y-117850240D01*
X153050000Y-118851000D02*
X152049240Y-118851000D01*
X153050000Y-119849220D02*
X152049240Y-119849220D01*
X153050000Y-120849980D02*
X151051020Y-120849980D01*
X154050760Y-110850000D02*
X154050760Y-111850760D01*
X155048980Y-110850000D02*
X155048980Y-111850760D01*
X156049740Y-110850000D02*
X156049740Y-111850760D01*
X157050500Y-110850000D02*
X157050500Y-111850760D01*
X158051260Y-110850000D02*
X158051260Y-112848980D01*
X159049480Y-110850000D02*
X159049480Y-111850760D01*
X160050240Y-110850000D02*
X160050240Y-111850760D01*
X161051000Y-110850000D02*
X161051000Y-111850760D01*
X162049220Y-110850000D02*
X162049220Y-111850760D01*
X163049980Y-110850000D02*
X163049980Y-112848980D01*
X158051260Y-110850000D02*
G75*
G02*
X148048740Y-110850000I-5001260J0D01*
G01*
X148048740Y-110850000D02*
G75*
G02*
X158051260Y-110850000I5001260J0D01*
G01*
X163049980Y-110850000D02*
G75*
G02*
X143050020Y-110850000I-9999980J0D01*
G01*
X143050020Y-110850000D02*
G75*
G02*
X163049980Y-110850000I9999980J0D01*
G01*
G04 #@! TD*
D11*
G04 #@! TO.P,FID1,*
G04 #@! TO.N,*
X129405000Y-65135000D03*
G04 #@! TD*
D12*
G04 #@! TO.P,R2,1*
G04 #@! TO.N,Net-(R1-Pad2)*
X123369765Y-96210235D03*
G04 #@! TO.P,R2,2*
G04 #@! TO.N,Net-(B1-Pad5V)*
X124660235Y-94919765D03*
G04 #@! TD*
G04 #@! TO.P,R4,1*
G04 #@! TO.N,Net-(R3-Pad2)*
X129539765Y-95670235D03*
G04 #@! TO.P,R4,2*
G04 #@! TO.N,Net-(B1-PadGND)*
X130830235Y-94379765D03*
G04 #@! TD*
D11*
G04 #@! TO.P,FID3,*
G04 #@! TO.N,*
X142550000Y-120990000D03*
G04 #@! TD*
D13*
G04 #@! TO.P,R3,1*
G04 #@! TO.N,Net-(R3-Pad1)*
X152635000Y-84735000D03*
G04 #@! TO.P,R3,2*
G04 #@! TO.N,Net-(R3-Pad2)*
X154285000Y-84735000D03*
G04 #@! TD*
D14*
G04 #@! TO.P,R6,1*
G04 #@! TO.N,Net-(R5-Pad2)*
X133200000Y-86150000D03*
G04 #@! TO.P,R6,2*
G04 #@! TO.N,Net-(R3-Pad1)*
X133840000Y-86150000D03*
G04 #@! TD*
D15*
G04 #@! TO.P,R5,1*
G04 #@! TO.N,Net-(R1-Pad1)*
X153155000Y-96485000D03*
G04 #@! TO.P,R5,2*
G04 #@! TO.N,Net-(R5-Pad2)*
X154175000Y-96485000D03*
G04 #@! TD*
D16*
G04 #@! TO.P,R1,1*
G04 #@! TO.N,Net-(R1-Pad1)*
X152342500Y-90365000D03*
G04 #@! TO.P,R1,2*
G04 #@! TO.N,Net-(R1-Pad2)*
X154167500Y-90365000D03*
G04 #@! TD*
D11*
G04 #@! TO.P,FID2,*
G04 #@! TO.N,*
X160825000Y-64630000D03*
G04 #@! TD*
D17*
G04 #@! TO.P,B1,3.3V,3.3V*
G04 #@! TO.N,unconnected-(B1-Pad3.3V)*
X164150000Y-96595000D03*
G04 #@! TO.P,B1,5V,5V*
G04 #@! TO.N,Net-(B1-Pad5V)*
X164150000Y-94055000D03*
G04 #@! TO.P,B1,A0,A0*
G04 #@! TO.N,unconnected-(B1-PadA0)*
X164150000Y-81355000D03*
G04 #@! TO.P,B1,A1,A1*
G04 #@! TO.N,unconnected-(B1-PadA1)*
X164150000Y-78815000D03*
G04 #@! TO.P,B1,A2,A2*
G04 #@! TO.N,unconnected-(B1-PadA2)*
X164150000Y-76275000D03*
G04 #@! TO.P,B1,A3,A3*
G04 #@! TO.N,unconnected-(B1-PadA3)*
X164150000Y-73735000D03*
G04 #@! TO.P,B1,A4/SDA,A4/SDA*
G04 #@! TO.N,unconnected-(B1-PadA4{slash}SDA)*
X115890000Y-110565000D03*
X164150000Y-71195000D03*
G04 #@! TO.P,B1,A5/SCL,A5/SCL*
G04 #@! TO.N,unconnected-(B1-PadA5{slash}SCL)*
X115890000Y-113105000D03*
X164150000Y-68655000D03*
G04 #@! TO.P,B1,AREF,AREF*
G04 #@! TO.N,unconnected-(B1-PadAREF)*
X115890000Y-108025000D03*
G04 #@! TO.P,B1,D0/TXO,D0/TXO*
G04 #@! TO.N,unconnected-(B1-PadD0{slash}TXO)*
X115890000Y-68655000D03*
G04 #@! TO.P,B1,D1/RXI,D1/RXI*
G04 #@! TO.N,unconnected-(B1-PadD1{slash}RXI)*
X115890000Y-71195000D03*
G04 #@! TO.P,B1,D2,D2*
G04 #@! TO.N,unconnected-(B1-PadD2)*
X115890000Y-73735000D03*
G04 #@! TO.P,B1,D3,\u002AD3*
G04 #@! TO.N,unconnected-(B1-\u002AD3-PadD3)*
X115890000Y-76275000D03*
G04 #@! TO.P,B1,D4,D4*
G04 #@! TO.N,unconnected-(B1-PadD4)*
X115890000Y-78815000D03*
G04 #@! TO.P,B1,D5,\u002AD5*
G04 #@! TO.N,unconnected-(B1-\u002AD5-PadD5)*
X115890000Y-81355000D03*
G04 #@! TO.P,B1,D6,\u002AD6*
G04 #@! TO.N,unconnected-(B1-\u002AD6-PadD6)*
X115890000Y-83895000D03*
G04 #@! TO.P,B1,D7,D7*
G04 #@! TO.N,unconnected-(B1-PadD7)*
X115890000Y-86435000D03*
G04 #@! TO.P,B1,D8,D8*
G04 #@! TO.N,unconnected-(B1-PadD8)*
X115890000Y-90245000D03*
G04 #@! TO.P,B1,D9,\u002AD9*
G04 #@! TO.N,unconnected-(B1-\u002AD9-PadD9)*
X115890000Y-92785000D03*
G04 #@! TO.P,B1,D10,\u002AD10*
G04 #@! TO.N,unconnected-(B1-\u002AD10-PadD10)*
X115890000Y-95325000D03*
G04 #@! TO.P,B1,D11,\u002AD11/PICO*
G04 #@! TO.N,unconnected-(B1-\u002AD11{slash}PICO-PadD11)*
X115890000Y-97865000D03*
G04 #@! TO.P,B1,D12,D12/POCI*
G04 #@! TO.N,unconnected-(B1-D12{slash}POCI-PadD12)*
X115890000Y-100405000D03*
G04 #@! TO.P,B1,D13,D13/SCK*
G04 #@! TO.N,unconnected-(B1-D13{slash}SCK-PadD13)*
X115890000Y-102945000D03*
G04 #@! TO.P,B1,GND,GND*
G04 #@! TO.N,Net-(B1-PadGND)*
X115890000Y-105485000D03*
X164150000Y-88975000D03*
X164150000Y-91515000D03*
G04 #@! TO.P,B1,IOREF,IOREF*
G04 #@! TO.N,unconnected-(B1-PadIOREF)*
X164150000Y-101675000D03*
G04 #@! TO.P,B1,NC,NC*
G04 #@! TO.N,unconnected-(B1-PadNC)*
X164150000Y-104215000D03*
G04 #@! TO.P,B1,VIN,VIN*
G04 #@! TO.N,unconnected-(B1-PadVIN)*
X164150000Y-86435000D03*
G04 #@! TO.P,B1,~{RESET},~{RESET}*
G04 #@! TO.N,unconnected-(B1-Pad~{RESET})*
X164150000Y-99135000D03*
G04 #@! TD*
D18*
G04 #@! TO.N,Net-(B1-PadGND)*
X138700000Y-106205000D03*
G04 #@! TO.N,Net-(R3-Pad2)*
X131547500Y-100107500D03*
X155240000Y-79240000D03*
G04 #@! TD*
D19*
G04 #@! TO.N,Net-(B1-PadGND)*
X138700000Y-106205000D02*
X138700000Y-106255000D01*
X138700000Y-102249530D02*
X138700000Y-106205000D01*
X130830235Y-94379765D02*
X138700000Y-102249530D01*
G04 #@! TO.N,Net-(B1-Pad5V)*
X124660235Y-94919765D02*
X124660235Y-96820235D01*
X146915000Y-111290000D02*
X164150000Y-94055000D01*
X124660235Y-96820235D02*
X139130000Y-111290000D01*
X139130000Y-111290000D02*
X146915000Y-111290000D01*
G04 #@! TO.N,Net-(R1-Pad2)*
X121235000Y-87550000D02*
X151352500Y-87550000D01*
X121235000Y-94075470D02*
X121235000Y-87550000D01*
X151352500Y-87550000D02*
X154167500Y-90365000D01*
X123369765Y-96210235D02*
X121235000Y-94075470D01*
G04 #@! TO.N,Net-(R1-Pad1)*
X152342500Y-95672500D02*
X153155000Y-96485000D01*
X152342500Y-90365000D02*
X152342500Y-95672500D01*
G04 #@! TO.N,Net-(R3-Pad1)*
X133840000Y-86150000D02*
X151220000Y-86150000D01*
X151220000Y-86150000D02*
X152635000Y-84735000D01*
G04 #@! TO.N,Net-(R3-Pad2)*
X154285000Y-84735000D02*
X155240000Y-83780000D01*
X155240000Y-83780000D02*
X155240000Y-79240000D01*
X129539765Y-95670235D02*
X129539765Y-98099765D01*
X129539765Y-98099765D02*
X131547500Y-100107500D01*
X131547500Y-100107500D02*
X131620000Y-100180000D01*
G04 #@! TO.N,Net-(R5-Pad2)*
X139295000Y-84365000D02*
X132850000Y-84365000D01*
X157455000Y-93205000D02*
X157455000Y-76920000D01*
X146740000Y-76920000D02*
X139295000Y-84365000D01*
X154175000Y-96485000D02*
X157455000Y-93205000D01*
X132850000Y-85800000D02*
X133200000Y-86150000D01*
X132850000Y-84365000D02*
X132850000Y-85800000D01*
X157455000Y-76920000D02*
X146740000Y-76920000D01*
G04 #@! TD*
M02*
