G04 #@! TF.GenerationSoftware,KiCad,Pcbnew,9.0.2*
G04 #@! TF.CreationDate,2025-09-06T12:03:56+01:00*
G04 #@! TF.ProjectId,test_fiducial,74657374-5f66-4696-9475-6369616c2e6b,rev?*
G04 #@! TF.SameCoordinates,Original*
G04 #@! TF.FileFunction,Soldermask,Top*
G04 #@! TF.FilePolarity,Negative*
%FSLAX46Y46*%
G04 Gerber Fmt 4.6, Leading zero omitted, Abs format (unit mm)*
G04 Created by KiCad (PCBNEW 9.0.2) date 2025-09-06 12:03:56*
%MOMM*%
%LPD*%
G01*
G04 APERTURE LIST*
G04 Aperture macros list*
%AMRoundRect*
0 Rectangle with rounded corners*
0 $1 Rounding radius*
0 $2 $3 $4 $5 $6 $7 $8 $9 X,Y pos of 4 corners*
0 Add a 4 corners polygon primitive as box body*
4,1,4,$2,$3,$4,$5,$6,$7,$8,$9,$2,$3,0*
0 Add four circle primitives for the rounded corners*
1,1,$1+$1,$2,$3*
1,1,$1+$1,$4,$5*
1,1,$1+$1,$6,$7*
1,1,$1+$1,$8,$9*
0 Add four rect primitives between the rounded corners*
20,1,$1+$1,$2,$3,$4,$5,0*
20,1,$1+$1,$4,$5,$6,$7,0*
20,1,$1+$1,$6,$7,$8,$9,0*
20,1,$1+$1,$8,$9,$2,$3,0*%
G04 Aperture macros list end*
%ADD10C,1.000000*%
%ADD11RoundRect,0.250000X0.132583X-0.503814X0.503814X-0.132583X-0.132583X0.503814X-0.503814X0.132583X0*%
%ADD12RoundRect,0.200000X-0.200000X-0.275000X0.200000X-0.275000X0.200000X0.275000X-0.200000X0.275000X0*%
%ADD13RoundRect,0.100000X-0.130000X-0.100000X0.130000X-0.100000X0.130000X0.100000X-0.130000X0.100000X0*%
%ADD14RoundRect,0.135000X-0.135000X-0.185000X0.135000X-0.185000X0.135000X0.185000X-0.135000X0.185000X0*%
%ADD15RoundRect,0.250000X-0.262500X-0.450000X0.262500X-0.450000X0.262500X0.450000X-0.262500X0.450000X0*%
%ADD16C,2.082800*%
G04 APERTURE END LIST*
D10*
G04 #@! TO.C,FID1*
X129405000Y-65135000D03*
G04 #@! TD*
D11*
G04 #@! TO.C,R2*
X123369765Y-96210235D03*
X124660235Y-94919765D03*
G04 #@! TD*
G04 #@! TO.C,R4*
X129539765Y-95670235D03*
X130830235Y-94379765D03*
G04 #@! TD*
D10*
G04 #@! TO.C,FID3*
X142550000Y-120990000D03*
G04 #@! TD*
D12*
G04 #@! TO.C,R3*
X152635000Y-84735000D03*
X154285000Y-84735000D03*
G04 #@! TD*
D13*
G04 #@! TO.C,R6*
X133200000Y-86150000D03*
X133840000Y-86150000D03*
G04 #@! TD*
D14*
G04 #@! TO.C,R5*
X153155000Y-96485000D03*
X154175000Y-96485000D03*
G04 #@! TD*
D15*
G04 #@! TO.C,R1*
X152342500Y-90365000D03*
X154167500Y-90365000D03*
G04 #@! TD*
D10*
G04 #@! TO.C,FID2*
X160825000Y-64630000D03*
G04 #@! TD*
D16*
G04 #@! TO.C,B1*
X164150000Y-96595000D03*
X164150000Y-94055000D03*
X164150000Y-81355000D03*
X164150000Y-78815000D03*
X164150000Y-76275000D03*
X164150000Y-73735000D03*
X115890000Y-110565000D03*
X164150000Y-71195000D03*
X115890000Y-113105000D03*
X164150000Y-68655000D03*
X115890000Y-108025000D03*
X115890000Y-68655000D03*
X115890000Y-71195000D03*
X115890000Y-73735000D03*
X115890000Y-76275000D03*
X115890000Y-78815000D03*
X115890000Y-81355000D03*
X115890000Y-83895000D03*
X115890000Y-86435000D03*
X115890000Y-90245000D03*
X115890000Y-92785000D03*
X115890000Y-95325000D03*
X115890000Y-97865000D03*
X115890000Y-100405000D03*
X115890000Y-102945000D03*
X115890000Y-105485000D03*
X164150000Y-88975000D03*
X164150000Y-91515000D03*
X164150000Y-101675000D03*
X164150000Y-104215000D03*
X164150000Y-86435000D03*
X164150000Y-99135000D03*
G04 #@! TD*
M02*
