M48
; DRILL file {KiCad 9.0.2} date 2025-09-06T12:03:56+0100
; FORMAT={-:-/ absolute / metric / decimal}
; #@! TF.CreationDate,2025-09-06T12:03:56+01:00
; #@! TF.GenerationSoftware,Kicad,Pcbnew,9.0.2
; #@! TF.FileFunction,Plated,1,2,PTH
FMAT,2
METRIC
; #@! TA.AperFunction,Plated,PTH,ViaDrill
T1C0.300
; #@! TA.AperFunction,Plated,PTH,ComponentDrill
T2C1.016
%
G90
G05
T1
X131.547Y-100.108
X138.7Y-106.205
X155.24Y-79.24
T2
X115.89Y-68.655
X115.89Y-71.195
X115.89Y-73.735
X115.89Y-76.275
X115.89Y-78.815
X115.89Y-81.355
X115.89Y-83.895
X115.89Y-86.435
X115.89Y-90.245
X115.89Y-92.785
X115.89Y-95.325
X115.89Y-97.865
X115.89Y-100.405
X115.89Y-102.945
X115.89Y-105.485
X115.89Y-108.025
X115.89Y-110.565
X115.89Y-113.105
X164.15Y-68.655
X164.15Y-71.195
X164.15Y-73.735
X164.15Y-76.275
X164.15Y-78.815
X164.15Y-81.355
X164.15Y-86.435
X164.15Y-88.975
X164.15Y-91.515
X164.15Y-94.055
X164.15Y-96.595
X164.15Y-99.135
X164.15Y-101.675
X164.15Y-104.215
M30
